<?xml version="1.0" encoding="UTF-8" standalone="no"?>
<!-- Generator: Adobe Illustrator 12.0.1, SVG Export Plug-In . SVG Version: 6.00 Build 51448)  -->

<svg
   version="1.0"
   id="Layer_1"
   width="500"
   height="234"
   viewBox="0 0 499.99999 233.99999"
   overflow="visible"
   enable-background="new 0 0 436.505 152.503"
   xml:space="preserve"
   sodipodi:docname="logo.svg"
   inkscape:version="1.4 (e7c3feb1, 2024-10-09)"
   xmlns:inkscape="http://www.inkscape.org/namespaces/inkscape"
   xmlns:sodipodi="http://sodipodi.sourceforge.net/DTD/sodipodi-0.dtd"
   xmlns:xlink="http://www.w3.org/1999/xlink"
   xmlns="http://www.w3.org/2000/svg"
   xmlns:svg="http://www.w3.org/2000/svg"><defs
   id="defs7"><linearGradient
   id="linearGradient33"
   inkscape:collect="always"><stop
     style="stop-color:#686868;stop-opacity:1;"
     offset="0"
     id="stop33" /><stop
     style="stop-color:#515151;stop-opacity:1;"
     offset="1"
     id="stop34" /></linearGradient><linearGradient
   id="linearGradient25"
   inkscape:collect="always"><stop
     style="stop-color:#dd55ff;stop-opacity:1;"
     offset="0"
     id="stop25" /><stop
     style="stop-color:#ff81fd;stop-opacity:1;"
     offset="1"
     id="stop26" /></linearGradient><linearGradient
   id="linearGradient23"
   inkscape:collect="always"><stop
     style="stop-color:#556fff;stop-opacity:1;"
     offset="0"
     id="stop23" /><stop
     style="stop-color:#55ffdd;stop-opacity:1;"
     offset="1"
     id="stop24" /></linearGradient>








	<linearGradient
   inkscape:collect="always"
   xlink:href="#linearGradient23"
   id="linearGradient24"
   x1="-1.61845"
   y1="76.251953"
   x2="438.9454"
   y2="76.251953"
   gradientUnits="userSpaceOnUse" /><linearGradient
   inkscape:collect="always"
   xlink:href="#linearGradient25"
   id="linearGradient26"
   x1="43.521713"
   y1="166.27663"
   x2="480.02664"
   y2="166.27663"
   gradientUnits="userSpaceOnUse"
   gradientTransform="skewX(-14.778803)" /><radialGradient
   inkscape:collect="always"
   xlink:href="#linearGradient33"
   id="radialGradient34"
   cx="420.73083"
   cy="-35.568977"
   fx="420.73083"
   fy="-35.568977"
   r="250.93925"
   gradientTransform="matrix(0.99999998,0,0,0.34876765,2.9152789e-8,56.344295)"
   gradientUnits="userSpaceOnUse" /></defs><sodipodi:namedview
   id="namedview7"
   pagecolor="#ffffff"
   bordercolor="#000000"
   borderopacity="0.25"
   inkscape:showpageshadow="2"
   inkscape:pageopacity="0.0"
   inkscape:pagecheckerboard="0"
   inkscape:deskcolor="#d1d1d1"
   inkscape:zoom="1"
   inkscape:cx="238.5"
   inkscape:cy="192"
   inkscape:window-width="1728"
   inkscape:window-height="1051"
   inkscape:window-x="0"
   inkscape:window-y="38"
   inkscape:window-maximized="0"
   inkscape:current-layer="Layer_1" />
<path
   id="text7"
   style="font-weight:900;font-size:97.871px;line-height:0.75;font-family:Orbitron;-inkscape-font-specification:'Orbitron, Heavy @wght=900';font-variation-settings:'wght' 900;text-align:center;text-anchor:middle;mix-blend-mode:soft-light;fill:url(#linearGradient26);stroke:#a91313;stroke-width:4;stroke-linecap:round;stroke-linejoin:round;stroke-dasharray:none;stroke-opacity:1;paint-order:markers stroke fill"
   d="m 13.757316,206.90913 q -4.3638065,0 -7.388327,-2.18181 -3.0245204,-2.18182 -4.2566479,-5.78184 -1.12303573,-3.59998 -5.763e-4,-7.85453 L 14.631505,143.63646 h 16.691561 l -12.28949,46.58176 q 0,0 0,0 0,0 0,0 h 30.764839 q 0,0 0,0 0,0 0,0 l 12.289491,-46.58176 h 16.69156 l -12.519741,47.45448 q -1.122459,4.25455 -4.254133,7.85453 -3.022585,3.60002 -7.198346,5.78184 -4.175761,2.18182 -8.539567,2.18182 z M 64.303686,232 v 0 l 23.312622,-88.36354 h 48.329162 q 4.3638,0 7.38832,2.18182 3.02454,2.18181 4.14756,5.78181 1.23214,3.59997 0.10967,7.85452 l -8.34649,31.63634 q -1.12247,4.25455 -4.25415,7.85453 -3.02257,3.60002 -7.19834,5.78184 -4.17576,2.18181 -8.53957,2.18181 H 87.614878 L 80.995243,232 Z m 27.714688,-41.78178 h 30.764846 q 0,0 0,0 0,0 0,0 l 7.88599,-29.89088 q 0,0 0,0 0,0 0,0 H 99.904376 q 0,0 0,0 0,0 0,0 z m 53.371776,41.67268 v 0 l 4.43228,-16.79998 h 37.52874 q 0,0 0,0 0,0 0,0 l 2.15857,-8.18179 h -31.63761 q -4.3638,0 -7.38832,-2.18182 -3.0245,-2.18182 -4.25665,-5.78184 -1.23211,-3.59997 -0.10965,-7.85453 l 8.3465,-31.63634 q 1.12244,-4.25454 4.25412,-7.85452 3.13169,-3.6 7.30744,-5.78181 4.17575,-2.18181 8.53956,-2.18181 h 32.51036 q 4.36381,0 7.38834,2.18181 3.02452,2.18181 4.14755,5.78181 1.23212,3.59998 0.10967,7.85452 l -14.93736,56.61815 q -1.15125,4.36363 -4.28291,7.96362 -3.0226,3.6 -7.16957,5.67272 -4.17577,2.18182 -8.53958,2.18182 z m 17.64914,-41.67268 h 30.87395 q 0,0 0,0 0,0 0,0 l 7.88599,-29.89088 q 0,0 0,0 0,0 0,0 h -30.87394 q 0,0 0,0 0,0 0,0 z m 51.88971,16.69091 v 0 l 12.51975,-47.45453 q 1.12246,-4.25454 4.25413,-7.85452 3.13168,-3.6 7.30743,-5.78181 4.17577,-2.18181 8.53957,-2.18181 h 34.91046 l -4.40348,16.69088 h -34.1468 q 0,0 0,0 0,0 0,0 l -12.2895,46.58179 z m 75.38493,0 q -4.36381,0 -7.38832,-2.18182 -3.02452,-2.18182 -4.25666,-5.78184 -1.12304,-3.59997 -5.6e-4,-7.85453 l 6.38937,-24.21816 h 47.4564 l 1.72686,-6.54544 q 0,0 0,0 0,0 0,0 h -47.45639 l 4.40349,-16.69088 h 48.32917 q 4.3638,0 7.38831,2.18181 3.02453,2.18181 4.14757,5.78181 1.23212,3.59998 0.10965,7.85452 l -12.51975,47.45453 z m 5.27627,-16.69091 h 30.76484 l 2.30248,-8.72727 h -30.76484 z m 67.27203,16.69091 q -4.36381,0 -7.38833,-2.18182 -3.0245,-2.18182 -4.25665,-5.78184 -1.12303,-3.59997 -5.7e-4,-7.85453 l 8.34651,-31.63634 q 1.12243,-4.25454 4.14503,-7.85452 3.13168,-3.6 7.30743,-5.78181 4.17576,-2.18181 8.53956,-2.18181 h 31.74671 l 5.4684,-20.72725 h 16.69155 l -22.16138,83.99992 z m 5.38536,-16.69091 h 30.76485 q 0,0 0,0 0,0 0,0 l 7.88599,-29.89088 q 0,0 0,0 0,0 0,0 h -30.76484 q 0,0 0,0 0,0 0,0 z m 67.92654,16.69091 q -4.25472,0 -7.27924,-2.18182 -3.02451,-2.18182 -4.25665,-5.78184 -1.23213,-3.59997 -0.10965,-7.85453 l 8.34649,-31.63634 q 1.12244,-4.25454 4.25413,-7.85452 3.13167,-3.6 7.30744,-5.78181 4.17574,-2.18181 8.43045,-2.18181 h 32.51038 q 4.3638,0 7.38832,2.18181 3.02454,2.18181 4.14756,5.78181 1.23213,3.59998 0.10966,7.85452 l -6.3894,24.21817 h -47.45639 l -1.72687,6.54545 q 0,0 0,0 0,0 0,0 h 47.45641 l -4.40349,16.69091 z M 447.0339,169.0546 h 30.76485 l 2.30247,-8.72726 q 0,0 0,0 0,0 0,0 h -30.76484 q 0,0 0,0 0,0 0,0 z" /><path
   id="path1"
   style="mix-blend-mode:soft-light;fill:url(#linearGradient24);fill-opacity:1;stroke:url(#radialGradient34);stroke-width:2;stroke-linecap:round;stroke-linejoin:round;stroke-dasharray:none;stroke-opacity:1;paint-order:fill markers stroke"
   d="M 84.539053,1 73.513855,42.146209 c -3.749282,-1.051253 -6.985125,-1.401936 -11.365382,-1.401936 -28.209984,0 -51.223332,17.872905 -58.5946879,45.38292 -7.6533424,28.562397 5.5280378,43.454387 38.4706599,43.455527 11.038248,0 21.483467,-1.05222 36.030422,-3.68034 L 111.52267,1 Z M 58.956256,62.470937 c 3.328996,0 5.864091,0.349606 8.736493,1.399727 L 56.094906,107.15399 c -3.995164,0.52449 -6.498261,0.69986 -9.475704,0.69986 -13.842743,0 -19.263045,-7.884947 -15.412747,-22.254315 C 35.150041,70.88201 45.288724,62.470937 58.956256,62.470937 Z M 127.42889,1.143505 120.01053,28.82894 h 26.98362 L 154.4125,1.143505 Z M 116.30136,42.671656 102.0284,95.938521 c -6.291265,23.479089 -9.914398,32.414829 -15.835846,40.124009 -5.699066,7.53736 -12.794213,12.44183 -26.211961,18.04851 l 21.863483,11.91534 c 13.510817,-5.95822 20.750274,-11.38842 27.432694,-19.97591 7.1253,-8.93678 11.47194,-19.27316 17.24708,-40.82607 l 16.76112,-62.552744 z m 349.47237,-2.278418 c -27.50915,0 -49.42422,17.696673 -57.03205,46.084989 -7.3241,27.333673 4.76795,44.332013 31.75373,44.332013 27.3362,0 49.24922,-17.69858 56.80868,-45.910569 7.37105,-27.508883 -4.54685,-44.506433 -31.53036,-44.506433 z m -6.17055,21.726663 c 10.33629,1e-6 13.94569,8.762109 10.0021,23.479634 -3.99083,14.893865 -12.42407,23.479645 -22.76374,23.479645 -10.51148,0 -14.34534,-8.58465 -10.35533,-23.479645 3.99022,-14.891602 12.42689,-23.479634 23.11697,-23.479634 z M 195.84567,40.744273 c -12.44106,0 -24.48702,2.452817 -37.9056,8.05836 l -5.58743,20.852388 c 11.97055,-5.432598 23.93451,-8.234982 33.92149,-8.234982 6.83433,0 8.81912,1.750585 7.5046,6.656426 l -1.59608,5.956563 c -33.8696,2.804468 -49.70963,11.564511 -54.78056,30.489292 -4.69473,17.52086 3.35633,25.40923 25.95959,25.40923 11.21346,0 26.78482,-1.22619 39.34607,-2.97829 l 14.69534,-54.843199 c 3.00524,-11.215613 3.71407,-16.471554 2.51726,-20.501352 -2.10583,-7.184684 -10.23194,-10.864436 -24.07468,-10.864436 z m -7.17816,50.988446 -4.83614,18.048521 c -5.49217,0.87606 -9.26591,1.22532 -13.29689,1.22532 -7.35882,0 -10.03054,-2.45328 -8.62212,-7.70955 1.8779,-7.008336 8.41196,-9.812204 26.75515,-11.564291 z m 92.6859,-50.988446 c -13.31712,0 -26.97535,1.928179 -44.04623,6.133185 L 215.42835,128.5296 h 26.98362 l 17.18408,-64.131278 c 5.85632,-1.576878 9.28013,-1.927385 12.95956,-1.927385 9.63655,0 12.10743,3.856445 9.33752,14.193753 l -13.89729,51.86491 h 26.98363 l 14.17889,-52.915809 c 3.61586,-13.494455 3.55599,-19.800675 -0.50177,-25.58143 -4.31595,-6.133431 -13.46044,-9.288088 -27.30318,-9.288088 z m 107.16579,0.174414 c -39.42344,0 -66.32643,17.344134 -74.54344,48.010164 -6.6199,24.705559 4.27257,40.300629 27.92822,40.300629 7.00727,0 12.54638,-1.05114 18.50659,-3.67813 l -0.14079,0.52544 c -4.60146,17.17271 -14.06008,24.35391 -31.75632,24.35391 -9.98698,0 -18.83752,-2.27603 -26.9866,-7.18188 h -0.002 l -6.66706,24.88158 c 8.47742,3.68052 17.16536,5.25671 27.67911,5.25671 20.67594,0 36.95598,-6.48198 48.88887,-19.62488 8.17626,-8.93564 13.01513,-19.80028 19.2128,-42.93009 l 1.97173,-7.3585 c 0.80955,-3.679381 1.79645,-7.360599 2.60684,-11.03885 l 3.7696,-14.719201 2.70253,-11.387677 0.75131,-2.803868 c 5.28841,0.525626 -0.99727,-0.688561 5.81189,0.713109 l 14.45688,-19.4637 c -12.26248,-2.628129 -22.62406,-3.854766 -34.1902,-3.854766 z m -14.58001,21.726664 h 1.92962 0.87428 l -0.56376,2.104003 -2.21809,8.937053 -3.15911,12.440786 c -0.98559,3.67825 -1.75028,7.183022 -2.59534,10.336778 l -1.97171,7.358489 -0.51705,1.9296 c -3.78446,1.05011 -6.95217,1.75075 -10.63158,1.75075 -11.9143,0 -16.50879,-7.707879 -12.89324,-21.201204 2.53515,-9.461265 7.65162,-16.120977 15.11947,-19.801488 4.91152,-2.628129 11.41828,-4.029976 16.62651,-3.854767 z" />
</svg>
