<?xml version="1.0" encoding="UTF-8" standalone="no"?>
<!-- Generator: Adobe Illustrator 12.0.1, SVG Export Plug-In . SVG Version: 6.00 Build 51448)  -->

<svg
   version="1.0"
   id="Layer_1"
   width="500"
   height="234"
   viewBox="0 0 499.99999 233.99999"
   overflow="visible"
   enable-background="new 0 0 436.505 152.503"
   xml:space="preserve"
   sodipodi:docname="logo.svg"
   inkscape:version="1.4 (e7c3feb1, 2024-10-09)"
   xmlns:inkscape="http://www.inkscape.org/namespaces/inkscape"
   xmlns:sodipodi="http://sodipodi.sourceforge.net/DTD/sodipodi-0.dtd"
   xmlns:xlink="http://www.w3.org/1999/xlink"
   xmlns="http://www.w3.org/2000/svg"
   xmlns:svg="http://www.w3.org/2000/svg"><defs
   id="defs7"><linearGradient
   id="linearGradient33"
   inkscape:collect="always"><stop
     style="stop-color:#686868;stop-opacity:1;"
     offset="0"
     id="stop33" /><stop
     style="stop-color:#515151;stop-opacity:1;"
     offset="1"
     id="stop34" /></linearGradient><linearGradient
   id="linearGradient25"
   inkscape:collect="always"><stop
     style="stop-color:#dd55ff;stop-opacity:1;"
     offset="0"
     id="stop25" /><stop
     style="stop-color:#ff81fd;stop-opacity:1;"
     offset="1"
     id="stop26" /></linearGradient><linearGradient
   id="linearGradient23"
   inkscape:collect="always"><stop
     style="stop-color:#556fff;stop-opacity:1;"
     offset="0"
     id="stop23" /><stop
     style="stop-color:#55ffdd;stop-opacity:1;"
     offset="1"
     id="stop24" /></linearGradient>








	<linearGradient
   inkscape:collect="always"
   xlink:href="#linearGradient23"
   id="linearGradient24"
   x1="-1.61845"
   y1="76.251953"
   x2="438.9454"
   y2="76.251953"
   gradientUnits="userSpaceOnUse" /><linearGradient
   inkscape:collect="always"
   xlink:href="#linearGradient25"
   id="linearGradient26"
   x1="43.521713"
   y1="166.27663"
   x2="480.02664"
   y2="166.27663"
   gradientUnits="userSpaceOnUse"
   gradientTransform="skewX(-14.778803)" /><radialGradient
   inkscape:collect="always"
   xlink:href="#linearGradient33"
   id="radialGradient34"
   cx="420.73083"
   cy="-35.568977"
   fx="420.73083"
   fy="-35.568977"
   r="250.93925"
   gradientTransform="matrix(0.99999998,0,0,0.34876766,0,56.3443)"
   gradientUnits="userSpaceOnUse" />








	<linearGradient
   inkscape:collect="always"
   xlink:href="#linearGradient23"
   id="linearGradient24-2"
   x1="-1.61845"
   y1="76.251953"
   x2="438.9454"
   y2="76.251953"
   gradientUnits="userSpaceOnUse"
   gradientTransform="translate(0.44608772)" /><radialGradient
   inkscape:collect="always"
   xlink:href="#linearGradient33"
   id="radialGradient34-3"
   cx="420.73083"
   cy="-35.568977"
   fx="420.73083"
   fy="-35.568977"
   r="250.93925"
   gradientTransform="matrix(0.99999998,0,0,0.34876765,0.44608775,56.344295)"
   gradientUnits="userSpaceOnUse" /></defs><sodipodi:namedview
   id="namedview7"
   pagecolor="#ffffff"
   bordercolor="#000000"
   borderopacity="0.25"
   inkscape:showpageshadow="2"
   inkscape:pageopacity="0.0"
   inkscape:pagecheckerboard="0"
   inkscape:deskcolor="#d1d1d1"
   inkscape:zoom="0.98853528"
   inkscape:cx="249.35883"
   inkscape:cy="117.34533"
   inkscape:window-width="1728"
   inkscape:window-height="1051"
   inkscape:window-x="0"
   inkscape:window-y="38"
   inkscape:window-maximized="0"
   inkscape:current-layer="Layer_1" />

<path
   id="text7"
   style="font-weight:900;font-size:97.871px;line-height:0.75;font-family:Orbitron;-inkscape-font-specification:'Orbitron, Heavy @wght=900';font-variation-settings:'wght' 900;text-align:center;text-anchor:middle;mix-blend-mode:soft-light;fill:url(#linearGradient26);stroke:#a91313;stroke-width:4;stroke-linecap:round;stroke-linejoin:round;stroke-dasharray:none;stroke-opacity:1;paint-order:markers stroke fill"
   d="m 13.757316,206.90913 q -4.3638065,0 -7.388327,-2.18181 -3.0245204,-2.18182 -4.2566479,-5.78184 -1.12303573,-3.59998 -5.763e-4,-7.85453 L 14.631505,143.63646 h 16.691561 l -12.28949,46.58176 q 0,0 0,0 0,0 0,0 h 30.764839 q 0,0 0,0 0,0 0,0 l 12.289491,-46.58176 h 16.69156 l -12.519741,47.45448 q -1.122459,4.25455 -4.254133,7.85453 -3.022585,3.60002 -7.198346,5.78184 -4.175761,2.18182 -8.539567,2.18182 z M 64.303686,232 v 0 l 23.312622,-88.36354 h 48.329162 q 4.3638,0 7.38832,2.18182 3.02454,2.18181 4.14756,5.78181 1.23214,3.59997 0.10967,7.85452 l -8.34649,31.63634 q -1.12247,4.25455 -4.25415,7.85453 -3.02257,3.60002 -7.19834,5.78184 -4.17576,2.18181 -8.53957,2.18181 H 87.614878 L 80.995243,232 Z m 27.714688,-41.78178 h 30.764846 q 0,0 0,0 0,0 0,0 l 7.88599,-29.89088 q 0,0 0,0 0,0 0,0 H 99.904376 q 0,0 0,0 0,0 0,0 z m 53.371776,41.67268 v 0 l 4.43228,-16.79998 h 37.52874 q 0,0 0,0 0,0 0,0 l 2.15857,-8.18179 h -31.63761 q -4.3638,0 -7.38832,-2.18182 -3.0245,-2.18182 -4.25665,-5.78184 -1.23211,-3.59997 -0.10965,-7.85453 l 8.3465,-31.63634 q 1.12244,-4.25454 4.25412,-7.85452 3.13169,-3.6 7.30744,-5.78181 4.17575,-2.18181 8.53956,-2.18181 h 32.51036 q 4.36381,0 7.38834,2.18181 3.02452,2.18181 4.14755,5.78181 1.23212,3.59998 0.10967,7.85452 l -14.93736,56.61815 q -1.15125,4.36363 -4.28291,7.96362 -3.0226,3.6 -7.16957,5.67272 -4.17577,2.18182 -8.53958,2.18182 z m 17.64914,-41.67268 h 30.87395 q 0,0 0,0 0,0 0,0 l 7.88599,-29.89088 q 0,0 0,0 0,0 0,0 h -30.87394 q 0,0 0,0 0,0 0,0 z m 51.88971,16.69091 v 0 l 12.51975,-47.45453 q 1.12246,-4.25454 4.25413,-7.85452 3.13168,-3.6 7.30743,-5.78181 4.17577,-2.18181 8.53957,-2.18181 h 34.91046 l -4.40348,16.69088 h -34.1468 q 0,0 0,0 0,0 0,0 l -12.2895,46.58179 z m 75.38493,0 q -4.36381,0 -7.38832,-2.18182 -3.02452,-2.18182 -4.25666,-5.78184 -1.12304,-3.59997 -5.6e-4,-7.85453 l 6.38937,-24.21816 h 47.4564 l 1.72686,-6.54544 q 0,0 0,0 0,0 0,0 h -47.45639 l 4.40349,-16.69088 h 48.32917 q 4.3638,0 7.38831,2.18181 3.02453,2.18181 4.14757,5.78181 1.23212,3.59998 0.10965,7.85452 l -12.51975,47.45453 z m 5.27627,-16.69091 h 30.76484 l 2.30248,-8.72727 h -30.76484 z m 67.27203,16.69091 q -4.36381,0 -7.38833,-2.18182 -3.0245,-2.18182 -4.25665,-5.78184 -1.12303,-3.59997 -5.7e-4,-7.85453 l 8.34651,-31.63634 q 1.12243,-4.25454 4.14503,-7.85452 3.13168,-3.6 7.30743,-5.78181 4.17576,-2.18181 8.53956,-2.18181 h 31.74671 l 5.4684,-20.72725 h 16.69155 l -22.16138,83.99992 z m 5.38536,-16.69091 h 30.76485 q 0,0 0,0 0,0 0,0 l 7.88599,-29.89088 q 0,0 0,0 0,0 0,0 h -30.76484 q 0,0 0,0 0,0 0,0 z m 67.92654,16.69091 q -4.25472,0 -7.27924,-2.18182 -3.02451,-2.18182 -4.25665,-5.78184 -1.23213,-3.59997 -0.10965,-7.85453 l 8.34649,-31.63634 q 1.12244,-4.25454 4.25413,-7.85452 3.13167,-3.6 7.30744,-5.78181 4.17574,-2.18181 8.43045,-2.18181 h 32.51038 q 4.3638,0 7.38832,2.18181 3.02454,2.18181 4.14756,5.78181 1.23213,3.59998 0.10966,7.85452 l -6.3894,24.21817 h -47.45639 l -1.72687,6.54545 q 0,0 0,0 0,0 0,0 h 47.45641 l -4.40349,16.69091 z M 447.0339,169.0546 h 30.76485 l 2.30247,-8.72726 q 0,0 0,0 0,0 0,0 h -30.76484 q 0,0 0,0 0,0 0,0 z" /><path
   id="path6"
   d="m 455.14113,40.80138 c 27.23396,0 43.85887,17.17341 43.85887,44.967 0,28.50396 -17.32997,46.38432 -44.91988,46.38432 -27.23624,0 -44.03685,-17.17342 -44.03685,-44.78998 10e-4,-28.68212 17.3334,-46.56134 45.09786,-46.56134 z m -0.53279,69.39717 c 10.43564,0 16.62605,-8.67522 16.62605,-23.72323 0,-14.86984 -6.01358,-23.72208 -16.44579,-23.72208 -10.7893,0 -16.98086,8.67636 -16.98086,23.72208 10e-4,15.04915 6.19156,23.72323 16.8006,23.72323 z m -137.42246,34.5227 c 9.55145,4.95662 19.10062,7.25676 29.18029,7.25676 17.86049,0 25.4656,-7.25676 25.4656,-24.60719 0,-0.17702 0,-0.35404 0,-0.53107 -5.3051,2.65419 -10.61133,3.71746 -17.68365,3.71746 -23.8752,0 -39.08656,-15.75609 -39.08656,-40.71733 0,-30.9834 22.46165,-48.50743 62.251,-48.50743 11.67348,0 22.46165,1.23801 35.54869,3.89334 l -9.32556,19.66542 c -7.25143,-1.41618 -0.58071,-0.18958 -6.06036,-0.72065 v 2.83349 l 0.35254,11.50529 0.17569,14.87212 c 0.17684,3.71632 0.17684,7.43492 0.35482,11.15239 0,3.36341 0,4.95775 0,7.43606 0,23.36918 -1.94521,34.34454 -7.78081,43.37266 -8.48929,13.27893 -23.16786,19.82874 -44.0357,19.82874 -10.61133,0 -19.80568,-1.5932 -29.35713,-5.3118 V 144.72125 Z M 371.3024,63.28431 c -0.35368,0 -0.70621,0 -0.88304,0 h -1.94635 c -5.30395,-0.17702 -11.49323,1.23801 -15.73958,3.89334 -6.54181,3.7186 -9.90399,10.44658 -9.90399,20.00576 0,13.63297 6.72207,21.42194 18.74695,21.42194 3.71357,0 6.72093,-0.70923 10.25652,-1.77022 v -1.94838 -7.43378 c 0,-3.1864 -0.1757,-6.72912 -0.1757,-10.44544 l -0.17569,-12.56856 -0.17798,-9.02926 v -2.1254 z M 226.30905,47.35119 c 16.09212,-4.24852 29.35599,-6.19462 42.7967,-6.19462 13.97122,0 24.05204,3.18525 30.06677,9.38216 5.65876,5.84058 7.42599,12.21337 7.42599,25.84749 v 53.46291 h -27.2351 V 77.44835 c 0,-10.4443 -3.53673,-14.34106 -13.26274,-14.34106 -3.71356,0 -7.07345,0.35404 -12.55767,1.94724 v 64.7946 h -27.23395 z m -79.58326,1.94724 c 12.02717,-5.66356 23.52154,-8.14186 36.07807,-8.14186 13.97122,0 23.16671,3.71631 27.23509,10.97536 2.29774,4.0715 3.00508,9.38216 3.00508,20.71385 v 55.41015 c -12.204,1.77022 -27.58877,3.01051 -38.9063,3.01051 -22.81305,0 -33.07184,-7.96941 -33.07184,-25.67161 0,-19.12065 13.61755,-27.97175 47.04306,-30.80524 v -6.01874 c 0,-4.95662 -2.47571,-6.7257 -9.37347,-6.7257 -10.07968,0 -21.39836,2.83236 -32.01083,8.32118 v -21.0679 z m 42.62101,43.3738 c -18.0396,1.77022 -23.8752,4.60372 -23.8752,11.68459 0,5.31066 3.36103,7.78897 10.78817,7.78897 4.06838,0 7.7808,-0.3529 13.08703,-1.23801 z M 130.27544,43.10267 v 63.20025 c 0,21.77599 -1.59153,32.22028 -6.36611,41.24954 -4.42205,8.67636 -10.2588,14.1629 -22.28368,20.18279 L 76.335755,155.69661 c 12.026016,-5.6647 17.861626,-10.62017 21.575196,-18.23554 3.891539,-7.78897 5.130529,-16.81823 5.130529,-40.54031 V 43.10267 Z M 103.04148,1.14504 h 27.23396 V 29.11679 H 103.04148 Z M 59.714268,1 h 27.235093 v 126.19494 c -13.971217,2.65533 -24.228873,3.71746 -35.36957,3.71746 -33.248678,-0.001 -50.579792,-15.04687 -50.579792,-43.90487 0,-27.79473 18.393274,-45.85096 46.865085,-45.85096 4.420912,0 7.780804,0.3529 11.849184,1.41503 z m 0,63.52232 c -3.183056,-1.06099 -5.835603,-1.41503 -9.195496,-1.41503 -13.794385,0 -21.753167,8.49819 -21.753167,23.36803 0,14.51809 7.605109,22.48407 21.57633,22.48407 3.005079,0 5.481931,-0.17702 9.372333,-0.70694 z"
   style="font-variation-settings:normal;opacity:1;mix-blend-mode:soft-light;vector-effect:none;fill:url(#linearGradient24);fill-opacity:1;stroke:url(#radialGradient34);stroke-width:2;stroke-linecap:round;stroke-linejoin:round;stroke-miterlimit:4;stroke-dasharray:none;stroke-dashoffset:0;stroke-opacity:1;-inkscape-stroke:none;paint-order:fill markers stroke;stop-color:#000000;stop-opacity:1" /></svg>
